<?xml version="1.0" standalone="no"?><!DOCTYPE svg PUBLIC "-//W3C//DTD SVG 1.1//EN" "http://www.w3.org/Graphics/SVG/1.1/DTD/svg11.dtd"><svg t="1744880025856" class="icon" viewBox="0 0 1024 1024" version="1.1" xmlns="http://www.w3.org/2000/svg" p-id="2220" xmlns:xlink="http://www.w3.org/1999/xlink" width="200" height="200"><path d="M992.17 77h-960c-16.57 0-30 13.43-30 30v810c0 16.57 13.43 30 30 30h960c16.57 0 30-13.43 30-30V107c0-16.57-13.43-30-30-30z m-30 60v525.87L671.24 375.64c-13.28-13.11-34.21-14.35-48.94-2.9L62.17 808.13V137h900z" fill="#2c2c2c" p-id="2221"></path><path d="M252.17 327m-100 0a100 100 0 1 0 200 0 100 100 0 1 0-200 0Z" fill="#2c2c2c" p-id="2222"></path></svg>